<svg version="1.1" id="Layer_1" xmlns="http://www.w3.org/2000/svg" xmlns:xlink="http://www.w3.org/1999/xlink" x="0px" y="0px"
	 width="100%" viewBox="0 0 631 181" enable-background="new 0 0 631 181" xml:space="preserve">
<path fill="#FDFDFD" opacity="1.000000" stroke="none" 
	d="
M410.000000,182.000000 
	C273.375244,182.000000 137.250488,182.000000 1.062868,182.000000 
	C1.062868,121.727203 1.062868,61.454327 1.062868,1.090724 
	C211.333313,1.090724 421.666656,1.090724 631.965759,1.090724 
	C631.965759,61.416126 631.965759,121.708076 631.965759,182.000000 
	C558.121033,182.000000 484.310516,182.000000 410.000000,182.000000 
M305.779633,123.749451 
	C307.184875,120.600403 309.607941,117.511848 309.799408,114.290657 
	C310.318054,105.564522 309.889282,96.782082 309.977325,87.378601 
	C310.275299,86.585777 310.573273,85.792946 311.228760,84.406006 
	C314.430054,81.813629 311.514587,79.451538 310.996765,76.283257 
	C310.609650,75.182930 310.222534,74.082603 309.981079,72.053757 
	C309.981079,64.432335 309.981079,56.810917 309.981079,48.998741 
	C308.106384,48.998741 306.624390,48.998741 305.018951,48.089680 
	C304.955994,44.727291 304.893066,41.364906 304.917145,37.142048 
	C304.152130,36.764256 303.389008,36.064152 302.621765,36.059601 
	C296.415039,36.022762 290.207489,36.116539 283.076813,36.031666 
	C278.384613,36.077763 273.692413,36.123863 268.087524,36.031670 
	C264.391937,36.077938 260.696350,36.124203 256.120483,36.032486 
	C253.746506,36.078369 251.372543,36.124249 248.107285,36.032146 
	C245.403976,36.078011 242.700668,36.123875 239.073151,36.031364 
	C234.048294,36.077408 229.023438,36.123451 223.070648,36.031101 
	C214.713242,36.077507 206.355835,36.123917 197.070526,36.031895 
	C174.487640,36.031895 151.904739,36.031895 129.170258,36.031895 
	C129.170258,51.750019 129.170258,66.874870 129.031509,82.926613 
	C129.077530,88.617271 129.123550,94.307930 129.031876,100.898636 
	C129.077835,103.932297 129.123810,106.965950 129.032135,110.866562 
	C129.078079,112.910583 129.124039,114.954613 129.032303,117.824844 
	C129.078369,119.216850 129.124420,120.608856 129.032654,122.880600 
	C129.078461,125.253716 129.124268,127.626823 129.037399,130.859787 
	C129.832214,131.569794 130.581604,132.821884 131.429947,132.892944 
	C134.568512,133.155807 137.739716,133.028793 141.252014,133.743988 
	C141.891342,137.162827 142.530670,140.581665 143.032089,144.925064 
	C143.078125,149.950317 143.124161,154.975555 143.033112,160.895706 
	C143.024078,162.052353 142.934555,163.214905 143.019211,164.364655 
	C143.525421,171.238846 141.626511,172.440063 135.579941,172.028046 
	C133.502380,171.886475 131.407043,172.005539 129.330048,172.005539 
	C129.330048,175.322647 129.330048,178.030411 129.330048,180.829498 
	C132.768417,180.829498 135.884781,180.829498 139.927292,180.967560 
	C145.285110,180.921921 150.642929,180.876282 156.908310,180.968643 
	C160.272507,180.922424 163.636703,180.876205 167.892502,180.967972 
	C170.595245,180.921753 173.298004,180.875534 176.900345,180.967560 
	C179.934296,180.921677 182.968262,180.875793 186.925110,180.968384 
	C191.617126,180.922226 196.309158,180.876068 201.929291,180.968124 
	C209.286728,180.921860 216.644180,180.875595 224.929718,180.967682 
	C233.953522,180.921844 242.977310,180.876022 252.929230,180.968918 
	C270.139954,180.968918 287.350677,180.968918 304.776245,180.968918 
	C304.776245,177.594193 304.776245,174.657959 304.776245,171.830276 
	C299.377258,172.967697 293.880066,174.034714 288.427612,175.295288 
	C279.657379,177.322876 274.118164,172.222244 274.970612,164.073212 
	C274.923462,158.049393 274.876312,152.025589 274.969482,145.085846 
	C275.683044,140.070724 276.396637,135.055618 277.681000,129.812988 
	C278.467163,129.245819 279.253296,128.678635 280.896698,128.011078 
	C285.979614,127.672539 291.102295,127.611824 296.130737,126.892471 
	C299.205505,126.452614 302.135559,125.001038 305.779633,123.749451 
M21.409336,155.548691 
	C25.222834,158.179947 29.036331,160.811218 33.372566,163.889862 
	C37.248589,165.203964 41.124611,166.518066 45.831894,168.024124 
	C51.887596,168.046539 57.943295,168.068954 64.823204,168.166092 
	C76.481018,166.611237 85.787285,160.670502 93.933266,151.635361 
	C94.123451,154.707672 94.256653,156.859406 94.209740,159.888626 
	C94.209740,162.148331 94.209740,164.408035 94.209740,166.740021 
	C109.080177,166.740021 123.322205,166.740021 137.693100,166.740021 
	C137.693100,157.099045 137.693100,147.716171 137.693100,138.167053 
	C133.262833,138.167053 129.131195,138.167053 124.281052,137.678940 
	C124.131958,134.118759 123.982864,130.558594 123.969398,126.085991 
	C123.923691,122.390465 123.877991,118.694946 123.970070,114.086990 
	C123.924553,110.391235 123.879036,106.695488 123.970673,102.079193 
	C123.924500,97.718513 123.878319,93.357834 123.968727,88.074181 
	C123.922752,83.382523 123.876785,78.690872 123.968147,73.081856 
	C123.922417,69.053978 123.876694,65.026093 123.968727,60.083729 
	C123.968727,56.809856 123.968727,53.535988 123.968727,50.169792 
	C121.272049,50.169792 119.135010,50.169792 116.069839,50.032360 
	C108.828377,50.032360 101.586922,50.032360 93.683586,50.032360 
	C93.683586,55.682011 93.683586,60.785728 93.440460,65.732086 
	C93.440460,65.732086 93.153221,65.695137 92.981964,65.062187 
	C90.653870,62.893387 88.325775,60.724586 85.428452,58.066311 
	C80.392387,55.660873 75.356316,53.255432 69.656029,50.320583 
	C65.941719,49.829075 62.234768,48.979492 58.511936,48.903023 
	C30.143532,48.320309 9.335052,65.622253 4.039580,94.503952 
	C3.755066,101.334259 3.470552,108.164574 3.100586,115.821526 
	C4.189586,120.952248 5.278586,126.082962 6.524735,131.968338 
	C8.673197,136.316681 10.821659,140.665009 13.110360,145.684845 
	C15.777646,148.775223 18.444931,151.865585 21.409336,155.548691 
M524.953369,145.492493 
	C539.852295,165.924820 566.254700,174.131531 591.827576,166.279129 
	C609.765381,160.771133 626.219727,143.789932 626.628845,130.165604 
	C617.135864,130.165604 607.646240,130.076096 598.162292,130.268951 
	C596.846741,130.295715 595.130676,131.410782 594.325989,132.539566 
	C586.919556,142.928436 576.493347,146.715637 564.249451,143.248993 
	C552.840881,140.018860 545.410095,130.453445 544.851807,117.683853 
	C573.078430,117.683853 601.284363,117.683853 629.987732,117.683853 
	C629.987732,110.927528 630.555054,104.734085 629.886292,98.677139 
	C627.433533,76.463943 616.206299,60.542068 595.054871,52.315693 
	C585.381348,48.553383 575.173401,47.957535 565.029175,49.127178 
	C543.106934,51.654835 526.720825,62.445930 518.971130,83.602036 
	C511.252563,104.673355 512.584167,125.391380 524.953369,145.492493 
M433.737549,74.927765 
	C447.887360,71.453972 457.597473,76.109329 464.645142,89.698639 
	C470.775726,89.698639 476.868927,89.698639 483.163635,89.698639 
	C483.163635,82.918015 482.783447,76.406349 483.290619,69.964539 
	C483.659607,65.277840 481.654480,62.499424 478.243408,59.992607 
	C462.008179,48.061188 443.885773,46.370548 424.995178,50.848366 
	C406.828461,55.154591 394.664764,66.763565 388.052490,84.111137 
	C383.244598,96.724968 382.588226,109.816322 385.119141,122.947014 
	C389.100983,143.605469 400.369141,158.939896 420.700256,165.537155 
	C442.211060,172.517181 462.784241,170.247192 480.687256,154.948700 
	C481.650696,154.125397 482.952454,152.939911 482.977081,151.896606 
	C483.167542,143.822342 483.082092,135.741577 483.082092,127.517975 
	C477.404480,127.517975 472.396820,127.324959 467.421692,127.642342 
	C466.032654,127.730949 464.103699,129.022903 463.503876,130.279205 
	C458.915375,139.889313 451.075531,143.682953 440.869568,143.509369 
	C430.177216,143.327499 422.321716,138.439270 418.025818,128.675934 
	C412.703308,116.579414 412.712860,104.107033 416.878265,91.658684 
	C419.563141,83.634911 424.781677,77.899551 433.737549,74.927765 
M283.168427,162.322052 
	C283.168427,163.783920 283.168427,165.245789 283.168427,167.014160 
	C298.394440,167.234344 309.761719,160.741425 319.289154,147.980820 
	C319.289154,154.847412 319.289154,160.088455 319.289154,165.183228 
	C328.801910,165.183228 337.901031,165.183228 347.406433,165.183228 
	C347.406433,126.352684 347.406433,87.818016 347.406433,49.264618 
	C338.133301,49.264618 328.716827,49.264618 319.002319,49.264618 
	C319.002319,51.158707 319.002350,52.793774 319.002319,54.428837 
	C319.001831,72.584747 319.151978,90.742264 318.958954,108.896126 
	C318.761566,127.460152 309.975708,135.951355 291.426971,136.001358 
	C288.811554,136.008408 286.196075,136.002335 283.168457,136.002335 
	C283.168457,144.780182 283.168457,153.067917 283.168427,162.322052 
M506.516754,112.437897 
	C506.087128,95.544182 509.527283,79.752884 519.457275,65.690636 
	C520.492432,64.224655 520.767273,61.969933 520.782776,60.076160 
	C520.892029,46.746376 520.840759,33.415276 520.840759,20.084599 
	C520.840759,17.332613 520.840759,14.580627 520.840759,11.841522 
	C510.548309,11.841522 500.969055,11.841522 491.372650,11.841522 
	C491.372650,63.635403 491.372650,115.072632 491.372650,166.626862 
	C501.280884,166.626862 510.971313,166.626862 521.446716,166.626862 
	C520.781738,161.316238 521.677429,155.491623 519.287964,151.784286 
	C511.658875,139.947311 507.642792,127.246849 506.516754,112.437897 
M355.519073,93.499779 
	C355.519073,117.900597 355.519073,142.301407 355.519073,166.725052 
	C365.723358,166.725052 375.305481,166.725052 385.161774,166.725052 
	C385.161774,163.483887 385.041077,160.506363 385.186218,157.541824 
	C385.515198,150.823196 384.174500,144.688263 381.578979,138.302551 
	C373.534943,118.512146 373.279175,98.174194 382.014832,78.610420 
	C386.181274,69.279625 384.489563,60.188370 385.184418,50.833458 
	C375.087311,50.833458 365.529663,50.833458 355.518982,50.833458 
	C355.518982,64.928520 355.518982,78.714142 355.519073,93.499779 
M431.522125,132.064438 
	C437.691254,137.035599 451.495483,137.072388 455.891327,126.296669 
	C458.157776,120.740860 462.087189,118.805527 467.697388,118.969933 
	C472.101074,119.098984 476.511566,118.995827 480.632355,118.995827 
	C480.632355,111.871254 480.632355,105.474297 480.632355,99.004082 
	C476.281616,99.004082 472.260834,99.327347 468.315216,98.920876 
	C463.564148,98.431427 458.145294,98.324120 456.288055,92.576096 
	C454.437836,86.849693 450.942444,83.523788 444.910919,83.007744 
	C437.166412,82.345146 430.383209,83.335075 426.178741,91.290131 
	C422.171631,98.871727 423.073059,106.862923 423.037384,114.816368 
	C423.006805,121.641083 425.766937,127.336067 431.522125,132.064438 
M367.225922,2.546063 
	C357.367737,4.745944 351.880768,11.556291 352.505249,20.817154 
	C353.117310,29.893814 360.122467,36.504856 369.645538,36.993095 
	C379.006317,37.473019 386.712433,31.649551 388.535278,22.718229 
	C390.932373,10.972876 381.623016,1.710247 367.225922,2.546063 
M561.736755,126.004173 
	C559.860596,126.004173 557.984436,126.004173 555.500854,126.004173 
	C560.332642,133.987961 566.841980,136.790833 574.881104,135.927170 
	C580.876038,135.283112 585.157715,131.921783 587.841187,126.004173 
	C579.162537,126.004173 570.919983,126.004173 561.736755,126.004173 
M615.580811,48.004181 
	C612.888123,48.004181 610.195496,48.004181 607.716980,48.004181 
	C613.508911,52.953087 619.096008,57.726940 624.716064,62.528969 
	C624.716064,57.685257 624.716064,52.972980 624.716064,48.004181 
	C621.805298,48.004181 619.171631,48.004181 615.580811,48.004181 
M623.612000,154.940033 
	C618.679382,159.600449 613.746704,164.260880 608.947205,168.795471 
	C613.889099,168.795471 619.231995,168.795471 625.335266,168.795471 
	C624.936890,163.835510 624.557800,159.116150 623.612000,154.940033 
M404.081329,50.400364 
	C405.251556,49.791397 406.421783,49.182434 408.319305,48.195000 
	C402.657440,48.195000 397.925934,48.195000 393.483398,48.195000 
	C393.738434,51.406464 393.979523,54.441879 394.275391,58.167084 
	C397.546295,55.627113 400.559082,53.287594 404.081329,50.400364 
M29.597712,48.005775 
	C25.500586,48.005775 21.403460,48.005775 17.383617,48.005775 
	C17.383617,51.554661 17.383617,54.524441 17.383617,57.147919 
	C21.533459,54.641361 25.564060,52.249081 29.530254,49.754398 
	C29.993668,49.462921 30.101528,48.606163 29.597712,48.005775 
M26.409052,166.084198 
	C23.406151,163.943878 20.403250,161.803558 17.327919,159.611618 
	C17.327919,162.683701 17.327919,165.698105 17.327919,168.557846 
	C21.592676,168.557846 25.524370,168.557846 30.575882,168.557846 
	C28.688599,167.478516 27.851620,166.999847 26.409052,166.084198 
M398.549927,163.035187 
	C397.187378,161.754379 395.824799,160.473587 393.791443,158.562256 
	C393.791443,162.628220 393.791443,165.670059 393.791443,168.766602 
	C397.777649,168.766602 402.104004,168.766602 406.877777,168.766602 
	C403.991089,166.849030 401.522675,165.209335 398.549927,163.035187 
M529.076782,54.382553 
	C532.221375,52.444126 535.365906,50.505703 538.905579,48.323730 
	C535.308472,48.323730 532.199768,48.323730 529.009521,48.323730 
	C529.009521,50.292831 529.009521,51.942902 529.076782,54.382553 
M535.539673,167.031006 
	C533.491577,165.759033 531.443420,164.487045 529.180420,163.081604 
	C529.180420,165.415970 529.180420,167.031204 529.180420,168.562195 
	C532.074524,168.562195 534.773254,168.562195 538.296753,168.562195 
	C536.971863,167.980942 536.521851,167.783524 535.539673,167.031006 
M87.248055,48.019184 
	C85.068985,48.019184 82.889915,48.019184 79.436455,48.019184 
	C83.309784,50.133350 85.918770,51.557404 89.444183,53.481667 
	C88.836266,51.045750 88.468063,49.570335 87.248055,48.019184 
z"/>
<path fill="#242424" opacity="1.000000" stroke="none" 
	d="
M524.738037,145.203629 
	C512.584167,125.391380 511.252563,104.673355 518.971130,83.602036 
	C526.720825,62.445930 543.106934,51.654835 565.029175,49.127178 
	C575.173401,47.957535 585.381348,48.553383 595.054871,52.315693 
	C616.206299,60.542068 627.433533,76.463943 629.886292,98.677139 
	C630.555054,104.734085 629.987732,110.927528 629.987732,117.683853 
	C601.284363,117.683853 573.078430,117.683853 544.851807,117.683853 
	C545.410095,130.453445 552.840881,140.018860 564.249451,143.248993 
	C576.493347,146.715637 586.919556,142.928436 594.325989,132.539566 
	C595.130676,131.410782 596.846741,130.295715 598.162292,130.268951 
	C607.646240,130.076096 617.135864,130.165604 626.628845,130.165604 
	C626.219727,143.789932 609.765381,160.771133 591.827576,166.279129 
	C566.254700,174.131531 539.852295,165.924820 524.738037,145.203629 
M546.073669,97.811478 
	C563.838501,97.811478 581.603333,97.811478 599.379028,97.811478 
	C598.965210,86.258255 592.852478,78.264381 581.927368,74.615013 
	C564.069031,68.649696 545.810242,80.051430 546.073669,97.811478 
z"/>
<path fill="#232323" opacity="1.000000" stroke="none" 
	d="
M433.339417,75.015488 
	C424.781677,77.899551 419.563141,83.634911 416.878265,91.658684 
	C412.712860,104.107033 412.703308,116.579414 418.025818,128.675934 
	C422.321716,138.439270 430.177216,143.327499 440.869568,143.509369 
	C451.075531,143.682953 458.915375,139.889313 463.503876,130.279205 
	C464.103699,129.022903 466.032654,127.730949 467.421692,127.642342 
	C472.396820,127.324959 477.404480,127.517975 483.082092,127.517975 
	C483.082092,135.741577 483.167542,143.822342 482.977081,151.896606 
	C482.952454,152.939911 481.650696,154.125397 480.687256,154.948700 
	C462.784241,170.247192 442.211060,172.517181 420.700256,165.537155 
	C400.369141,158.939896 389.100983,143.605469 385.119141,122.947014 
	C382.588226,109.816322 383.244598,96.724968 388.052490,84.111137 
	C394.664764,66.763565 406.828461,55.154591 424.995178,50.848366 
	C443.885773,46.370548 462.008179,48.061188 478.243408,59.992607 
	C481.654480,62.499424 483.659607,65.277840 483.290619,69.964539 
	C482.783447,76.406349 483.163635,82.918015 483.163635,89.698639 
	C476.868927,89.698639 470.775726,89.698639 464.645142,89.698639 
	C457.597473,76.109329 447.887360,71.453972 433.339417,75.015488 
z"/>
<path fill="#232323" opacity="1.000000" stroke="none" 
	d="
M283.168457,161.838852 
	C283.168457,153.067917 283.168457,144.780182 283.168457,136.002335 
	C286.196075,136.002335 288.811554,136.008408 291.426971,136.001358 
	C309.975708,135.951355 318.761566,127.460152 318.958954,108.896126 
	C319.151978,90.742264 319.001831,72.584747 319.002319,54.428837 
	C319.002350,52.793774 319.002319,51.158707 319.002319,49.264618 
	C328.716827,49.264618 338.133301,49.264618 347.406433,49.264618 
	C347.406433,87.818016 347.406433,126.352684 347.406433,165.183228 
	C337.901031,165.183228 328.801910,165.183228 319.289154,165.183228 
	C319.289154,160.088455 319.289154,154.847412 319.289154,147.980820 
	C309.761719,160.741425 298.394440,167.234344 283.168427,167.014160 
	C283.168427,165.245789 283.168427,163.783920 283.168457,161.838852 
z"/>
<path fill="#262626" opacity="1.000000" stroke="none" 
	d="
M506.523041,112.925369 
	C507.642792,127.246849 511.658875,139.947311 519.287964,151.784286 
	C521.677429,155.491623 520.781738,161.316238 521.446716,166.626862 
	C510.971313,166.626862 501.280884,166.626862 491.372650,166.626862 
	C491.372650,115.072632 491.372650,63.635403 491.372650,11.841522 
	C500.969055,11.841522 510.548309,11.841522 520.840759,11.841522 
	C520.840759,14.580627 520.840759,17.332613 520.840759,20.084599 
	C520.840759,33.415276 520.892029,46.746376 520.782776,60.076160 
	C520.767273,61.969933 520.492432,64.224655 519.457275,65.690636 
	C509.527283,79.752884 506.087128,95.544182 506.523041,112.925369 
z"/>
<path fill="#232323" opacity="1.000000" stroke="none" 
	d="
M355.519043,92.999771 
	C355.518982,78.714142 355.518982,64.928520 355.518982,50.833458 
	C365.529663,50.833458 375.087311,50.833458 385.184418,50.833458 
	C384.489563,60.188370 386.181274,69.279625 382.014832,78.610420 
	C373.279175,98.174194 373.534943,118.512146 381.578979,138.302551 
	C384.174500,144.688263 385.515198,150.823196 385.186218,157.541824 
	C385.041077,160.506363 385.161774,163.483887 385.161774,166.725052 
	C375.305481,166.725052 365.723358,166.725052 355.519073,166.725052 
	C355.519073,142.301407 355.519073,117.900597 355.519043,92.999771 
z"/>
<path fill="#159DB7" opacity="1.000000" stroke="none" 
	d="
M139.001144,180.829498 
	C135.884781,180.829498 132.768417,180.829498 129.330048,180.829498 
	C129.330048,178.030411 129.330048,175.322647 129.330048,172.005539 
	C131.407043,172.005539 133.502380,171.886475 135.579941,172.028046 
	C141.626511,172.440063 143.525421,171.238846 143.019211,164.364655 
	C142.934555,163.214905 143.024078,162.052353 143.444916,160.404236 
	C145.163116,159.202057 146.533752,158.587814 147.766647,157.766724 
	C191.729965,128.487839 235.659363,99.157967 279.651306,69.922211 
	C287.921448,64.426132 296.434021,59.294857 304.901367,54.453487 
	C305.137115,59.005428 305.306213,63.099121 305.288452,67.539047 
	C303.639862,68.971420 302.222595,70.124229 300.709869,71.134064 
	C248.205399,106.183746 195.684341,141.208603 143.214386,176.309875 
	C141.547928,177.424713 140.393997,179.305679 139.001144,180.829498 
z"/>
<path fill="#13A6B6" opacity="1.000000" stroke="none" 
	d="
M304.834717,53.995235 
	C296.434021,59.294857 287.921448,64.426132 279.651306,69.922211 
	C235.659363,99.157967 191.729965,128.487839 147.766647,157.766724 
	C146.533752,158.587814 145.163116,159.202057 143.513458,159.956787 
	C143.124161,154.975555 143.078125,149.950317 143.444305,144.418854 
	C145.162933,143.202057 146.533585,142.587997 147.766418,141.766968 
	C191.728561,112.489021 235.656677,83.159927 279.647614,53.925327 
	C287.916931,48.429867 296.429688,43.300705 304.830139,38.002510 
	C304.893066,41.364906 304.955994,44.727291 305.022125,48.957790 
	C304.961792,51.215679 304.898254,52.605453 304.834717,53.995235 
z"/>
<path fill="#222222" opacity="1.000000" stroke="none" 
	d="
M431.137787,132.015762 
	C425.766937,127.336067 423.006805,121.641083 423.037384,114.816368 
	C423.073059,106.862923 422.171631,98.871727 426.178741,91.290131 
	C430.383209,83.335075 437.166412,82.345146 444.910919,83.007744 
	C450.942444,83.523788 454.437836,86.849693 456.288055,92.576096 
	C458.145294,98.324120 463.564148,98.431427 468.315216,98.920876 
	C472.260834,99.327347 476.281616,99.004082 480.632355,99.004082 
	C480.632355,105.474297 480.632355,111.871254 480.632355,118.995827 
	C476.511566,118.995827 472.101074,119.098984 467.697388,118.969933 
	C462.087189,118.805527 458.157776,120.740860 455.891327,126.296669 
	C451.495483,137.072388 437.691254,137.035599 431.137787,132.015762 
z"/>
<path fill="#11AEB5" opacity="1.000000" stroke="none" 
	d="
M304.873657,37.572277 
	C296.429688,43.300705 287.916931,48.429867 279.647614,53.925327 
	C235.656677,83.159927 191.728561,112.489021 147.766418,141.766968 
	C146.533585,142.587997 145.162933,143.202057 143.513275,143.956573 
	C142.530670,140.581665 141.891342,137.162827 141.388229,133.247467 
	C142.049591,132.343582 142.551422,131.901215 143.103180,131.533844 
	C188.631775,101.220039 234.171997,70.923630 279.665894,40.557861 
	C281.340698,39.440006 282.565613,37.648190 284.000214,36.170464 
	C290.207489,36.116539 296.415039,36.022762 302.621765,36.059601 
	C303.389008,36.064152 304.152130,36.764256 304.873657,37.572277 
z"/>
<path fill="#1796B8" opacity="1.000000" stroke="none" 
	d="
M139.464218,180.898529 
	C140.393997,179.305679 141.547928,177.424713 143.214386,176.309875 
	C195.684341,141.208603 248.205399,106.183746 300.709869,71.134064 
	C302.222595,70.124229 303.639862,68.971420 305.475861,67.841759 
	C307.178497,69.526253 308.506927,71.254272 309.835388,72.982285 
	C310.222534,74.082603 310.609650,75.182930 310.621704,76.679764 
	C309.062378,77.665581 307.797546,78.133957 306.705444,78.861549 
	C257.632507,111.556068 208.568985,144.264740 159.544250,177.031433 
	C158.142731,177.968155 157.172226,179.549744 156.000748,180.830643 
	C150.642929,180.876282 145.285110,180.921921 139.464218,180.898529 
z"/>
<path fill="#0ACDB1" opacity="1.000000" stroke="none" 
	d="
M129.170258,81.999725 
	C129.170258,66.874870 129.170258,51.750019 129.170258,36.031895 
	C151.904739,36.031895 174.487640,36.031895 197.488403,36.437752 
	C197.120544,37.640690 196.443848,38.600338 195.533127,39.210960 
	C175.117249,52.899311 154.690445,66.571587 134.207367,80.158936 
	C132.758743,81.119888 130.859802,81.401970 129.170258,81.999725 
z"/>
<path fill="#0CC6B2" opacity="1.000000" stroke="none" 
	d="
M129.100891,82.463165 
	C130.859802,81.401970 132.758743,81.119888 134.207367,80.158936 
	C154.690445,66.571587 175.117249,52.899311 195.533127,39.210960 
	C196.443848,38.600338 197.120544,37.640690 197.952347,36.506969 
	C206.355835,36.123917 214.713242,36.077507 223.490356,36.436970 
	C222.776321,37.983089 221.796112,39.352535 220.486267,40.229866 
	C192.153412,59.207233 163.794678,78.146072 135.396774,97.025932 
	C133.500458,98.286674 131.253479,99.019966 129.169586,99.998589 
	C129.123550,94.307930 129.077530,88.617271 129.100891,82.463165 
z"/>
<path fill="#10B4B4" opacity="1.000000" stroke="none" 
	d="
M283.538513,36.101063 
	C282.565613,37.648190 281.340698,39.440006 279.665894,40.557861 
	C234.171997,70.923630 188.631775,101.220039 143.103180,131.533844 
	C142.551422,131.901215 142.049591,132.343582 141.211548,132.899612 
	C137.739716,133.028793 134.568512,133.155807 131.429947,132.892944 
	C130.581604,132.821884 129.832214,131.569794 129.449463,130.385193 
	C131.770782,128.916580 133.791733,128.090302 135.572922,126.903999 
	C177.835312,98.756485 220.085800,70.590950 262.278442,42.339073 
	C264.776123,40.666653 266.771240,38.243660 269.000214,36.169960 
	C273.692413,36.123863 278.384613,36.077763 283.538513,36.101063 
z"/>
<path fill="#1C84BB" opacity="1.000000" stroke="none" 
	d="
M3.186038,114.994881 
	C3.470552,108.164574 3.755066,101.334259 4.601072,94.196930 
	C7.114608,93.122459 9.266698,92.661446 10.986734,91.538589 
	C23.618807,83.292274 36.241085,75.026070 48.708271,66.533913 
	C56.061569,61.525131 63.125938,56.092178 70.320251,50.849995 
	C75.356316,53.255432 80.392387,55.660873 85.318497,58.460693 
	C79.974510,62.479301 74.669243,66.006851 69.545723,69.781113 
	C67.794403,71.071220 66.499046,72.980309 64.556519,74.693985 
	C48.771324,74.991089 39.364174,83.115433 33.967010,97.083588 
	C30.947201,98.319122 28.196457,99.374199 25.721487,100.881943 
	C18.152740,105.492813 10.690008,110.277695 3.186038,114.994881 
z"/>
<path fill="#1A88BA" opacity="1.000000" stroke="none" 
	d="
M280.039459,128.111450 
	C279.253296,128.678635 278.467163,129.245819 277.014587,129.919586 
	C274.694305,130.714828 272.876312,131.156265 271.411163,132.129135 
	C249.169235,146.897858 226.957458,161.712326 204.802063,176.610428 
	C203.278320,177.635056 202.256439,179.406036 201.001175,180.829926 
	C196.309158,180.876068 191.617126,180.922226 186.509064,180.563660 
	C186.728043,179.438965 187.248550,178.553116 188.015182,178.023758 
	C200.412613,169.463425 212.770538,160.842957 225.278091,152.445618 
	C249.212173,136.376755 273.215210,120.410164 297.254120,104.498581 
	C299.548340,102.980019 302.297607,102.148979 304.899445,101.449303 
	C304.920685,104.932335 304.878143,107.964828 304.476074,111.004242 
	C296.842438,115.723122 289.542084,120.395531 282.325256,125.193642 
	C281.348450,125.843071 280.791046,127.123299 280.039459,128.111450 
z"/>
<path fill="#1891B9" opacity="1.000000" stroke="none" 
	d="
M156.454529,180.899643 
	C157.172226,179.549744 158.142731,177.968155 159.544250,177.031433 
	C208.568985,144.264740 257.632507,111.556068 306.705444,78.861549 
	C307.797546,78.133957 309.062378,77.665581 310.598297,77.038605 
	C311.514587,79.451538 314.430054,81.813629 310.684875,84.709244 
	C308.631866,85.645172 306.972748,86.052643 305.635376,86.943222 
	C260.446442,117.034851 215.282639,147.164322 170.153229,177.345139 
	C168.890396,178.189651 168.042358,179.654434 167.000900,180.829987 
	C163.636703,180.876205 160.272507,180.922424 156.454529,180.899643 
z"/>
<path fill="#0DC0B3" opacity="1.000000" stroke="none" 
	d="
M129.100739,100.448608 
	C131.253479,99.019966 133.500458,98.286674 135.396774,97.025932 
	C163.794678,78.146072 192.153412,59.207233 220.486267,40.229866 
	C221.796112,39.352535 222.776321,37.983089 223.954315,36.506165 
	C229.023438,36.123451 234.048294,36.077408 239.474792,36.426540 
	C238.116211,38.284603 236.471008,39.919525 234.578659,41.184814 
	C201.275269,63.452637 167.951385,85.689896 134.584579,107.862503 
	C133.004150,108.912712 130.984741,109.302345 129.169769,109.999611 
	C129.123810,106.965950 129.077835,103.932297 129.100739,100.448608 
z"/>
<path fill="#1E7CBC" opacity="1.000000" stroke="none" 
	d="
M69.988144,50.585289 
	C63.125938,56.092178 56.061569,61.525131 48.708271,66.533913 
	C36.241085,75.026070 23.618807,83.292274 10.986734,91.538589 
	C9.266698,92.661446 7.114608,93.122459 4.742654,93.837097 
	C9.335052,65.622253 30.143532,48.320309 58.511936,48.903023 
	C62.234768,48.979492 65.941719,49.829075 69.988144,50.585289 
z"/>
<path fill="#0FB8B4" opacity="1.000000" stroke="none" 
	d="
M268.543884,36.100815 
	C266.771240,38.243660 264.776123,40.666653 262.278442,42.339073 
	C220.085800,70.590950 177.835312,98.756485 135.572922,126.903999 
	C133.791733,128.090302 131.770782,128.916580 129.515793,129.955261 
	C129.124268,127.626823 129.078461,125.253716 129.464111,122.433853 
	C131.400497,121.348282 133.050964,120.928421 134.389175,120.038795 
	C174.166687,93.595177 213.924210,67.121353 253.621246,40.557194 
	C255.075195,39.584263 255.888763,37.654381 257.000763,36.170471 
	C260.696350,36.124203 264.391937,36.077938 268.543884,36.100815 
z"/>
<path fill="#1B82BA" opacity="1.000000" stroke="none" 
	d="
M201.465240,180.899017 
	C202.256439,179.406036 203.278320,177.635056 204.802063,176.610428 
	C226.957458,161.712326 249.169235,146.897858 271.411163,132.129135 
	C272.876312,131.156265 274.694305,130.714828 276.729187,130.033356 
	C276.396637,135.055618 275.683044,140.070724 274.560547,145.588226 
	C258.192505,156.680466 242.221390,167.252411 226.303223,177.903458 
	C225.322510,178.559662 224.759155,179.839600 224.001617,180.829315 
	C216.644180,180.875595 209.286728,180.921860 201.465240,180.899017 
z"/>
<path fill="#252525" opacity="1.000000" stroke="none" 
	d="
M367.624359,2.427373 
	C381.623016,1.710247 390.932373,10.972876 388.535278,22.718229 
	C386.712433,31.649551 379.006317,37.473019 369.645538,36.993095 
	C360.122467,36.504856 353.117310,29.893814 352.505249,20.817154 
	C351.880768,11.556291 357.367737,4.745944 367.624359,2.427373 
z"/>
<path fill="#10B7B4" opacity="1.000000" stroke="none" 
	d="
M45.000633,167.832169 
	C41.124611,166.518066 37.248589,165.203964 33.171753,163.285431 
	C34.185661,161.423035 35.234264,159.925354 36.643852,158.948639 
	C42.752758,154.715714 49.011208,150.698181 55.105667,146.445236 
	C56.318436,145.598938 57.050270,144.063461 58.459229,142.784302 
	C76.084778,143.979614 86.018623,137.388489 93.536850,120.000015 
	C95.566544,119.355377 97.382248,118.964691 98.844391,118.024300 
	C105.408760,113.802299 111.828835,109.355553 118.404076,105.151138 
	C120.014145,104.121613 122.013268,103.700539 123.833519,102.999725 
	C123.879036,106.695488 123.924553,110.391235 123.542542,114.549538 
	C122.343460,115.264771 121.466583,115.359337 120.815544,115.792976 
	C96.290581,132.128418 71.778587,148.483444 47.307877,164.899979 
	C46.325310,165.559143 45.760231,166.840637 45.000633,167.832169 
z"/>
<path fill="#0EBDB3" opacity="1.000000" stroke="none" 
	d="
M45.416260,167.928146 
	C45.760231,166.840637 46.325310,165.559143 47.307877,164.899979 
	C71.778587,148.483444 96.290581,132.128418 120.815544,115.792976 
	C121.466583,115.359337 122.343460,115.264771 123.473648,115.005753 
	C123.877991,118.694946 123.923691,122.390465 123.562637,126.587494 
	C104.269913,139.636185 85.370834,152.163757 66.531693,164.780838 
	C65.438667,165.512848 64.832001,166.971100 63.998997,168.091370 
	C57.943295,168.068954 51.887596,168.046539 45.416260,167.928146 
z"/>
<path fill="#0BCCB1" opacity="1.000000" stroke="none" 
	d="
M124.999542,138.167053 
	C129.131195,138.167053 133.262833,138.167053 137.693100,138.167053 
	C137.693100,147.716171 137.693100,157.099045 137.693100,166.740021 
	C123.322205,166.740021 109.080177,166.740021 94.209740,166.740021 
	C94.209740,164.408035 94.209740,162.148331 94.647308,159.438324 
	C95.717796,158.823395 96.450333,158.810944 96.968781,158.471512 
	C105.780304,152.702560 114.588348,146.927261 123.318611,141.036957 
	C124.147186,140.477921 124.451714,139.142181 124.999542,138.167053 
z"/>
<path fill="#188EB9" opacity="1.000000" stroke="none" 
	d="
M167.446701,180.898987 
	C168.042358,179.654434 168.890396,178.189651 170.153229,177.345139 
	C215.282639,147.164322 260.446442,117.034851 305.635376,86.943222 
	C306.972748,86.052643 308.631866,85.645172 310.506104,85.006294 
	C310.573273,85.792946 310.275299,86.585777 309.596985,87.843285 
	C307.756042,90.538055 306.295410,92.768143 304.471222,95.005333 
	C302.602234,95.650940 300.950256,96.069366 299.612640,96.959938 
	C259.430176,123.713173 219.272705,150.503952 179.150513,177.347427 
	C177.888824,178.191544 177.041336,179.654724 176.000748,180.829315 
	C173.298004,180.875534 170.595245,180.921753 167.446701,180.898987 
z"/>
<path fill="#198BB9" opacity="1.000000" stroke="none" 
	d="
M176.450546,180.898438 
	C177.041336,179.654724 177.888824,178.191544 179.150513,177.347427 
	C219.272705,150.503952 259.430176,123.713173 299.612640,96.959938 
	C300.950256,96.069366 302.602234,95.650940 304.535065,95.430542 
	C304.920197,97.565353 304.877899,99.282051 304.835632,100.998749 
	C302.297607,102.148979 299.548340,102.980019 297.254120,104.498581 
	C273.215210,120.410164 249.212173,136.376755 225.278091,152.445618 
	C212.770538,160.842957 200.412613,169.463425 188.015182,178.023758 
	C187.248550,178.553116 186.728043,179.438965 186.047607,180.494431 
	C182.968262,180.875793 179.934296,180.921677 176.450546,180.898438 
z"/>
<path fill="#0EBDB3" opacity="1.000000" stroke="none" 
	d="
M129.100952,110.433090 
	C130.984741,109.302345 133.004150,108.912712 134.584579,107.862503 
	C167.951385,85.689896 201.275269,63.452637 234.578659,41.184814 
	C236.471008,39.919525 238.116211,38.284603 239.936890,36.495728 
	C242.700668,36.123875 245.403976,36.078011 248.508636,36.437767 
	C247.632172,38.076561 246.506729,39.537563 245.054031,40.509342 
	C214.281708,61.094364 183.497635,81.662094 152.652985,102.138474 
	C144.937302,107.260559 137.003540,112.054100 129.169998,116.998634 
	C129.124039,114.954613 129.078079,112.910583 129.100952,110.433090 
z"/>
<path fill="#1D7BBB" opacity="1.000000" stroke="none" 
	d="
M224.465668,180.898499 
	C224.759155,179.839600 225.322510,178.559662 226.303223,177.903458 
	C242.221390,167.252411 258.192505,156.680466 274.490417,146.046204 
	C274.876312,152.025589 274.923462,158.049393 274.541809,164.542831 
	C267.059723,169.540787 259.989349,174.043015 252.985687,178.646805 
	C252.422455,179.017044 252.318497,180.085953 252.001114,180.830200 
	C242.977310,180.876022 233.953522,180.921844 224.465668,180.898499 
z"/>
<path fill="#0EBBB3" opacity="1.000000" stroke="none" 
	d="
M129.101151,117.411743 
	C137.003540,112.054100 144.937302,107.260559 152.652985,102.138474 
	C183.497635,81.662094 214.281708,61.094364 245.054031,40.509342 
	C246.506729,39.537563 247.632172,38.076561 248.954285,36.506760 
	C251.372543,36.124249 253.746506,36.078369 256.560608,36.101479 
	C255.888763,37.654381 255.075195,39.584263 253.621246,40.557194 
	C213.924210,67.121353 174.166687,93.595177 134.389175,120.038795 
	C133.050964,120.928421 131.400497,121.348282 129.533020,121.993980 
	C129.124420,120.608856 129.078369,119.216850 129.101151,117.411743 
z"/>
<path fill="#0FC4B3" opacity="1.000000" stroke="none" 
	d="
M124.640297,137.923004 
	C124.451714,139.142181 124.147186,140.477921 123.318611,141.036957 
	C114.588348,146.927261 105.780304,152.702560 96.968781,158.471512 
	C96.450333,158.810944 95.717796,158.823395 94.737366,158.999573 
	C94.256653,156.859406 94.123451,154.707672 93.933266,151.635361 
	C85.787285,160.670502 76.481018,166.611237 64.411102,168.128723 
	C64.832001,166.971100 65.438667,165.512848 66.531693,164.780838 
	C85.370834,152.163757 104.269913,139.636185 123.494820,127.043701 
	C123.982864,130.558594 124.131958,134.118759 124.640297,137.923004 
z"/>
<path fill="#1895B8" opacity="1.000000" stroke="none" 
	d="
M93.153221,65.695137 
	C93.153221,65.695137 93.440460,65.732086 93.939804,65.816864 
	C101.743324,61.266521 109.058517,56.648449 116.323929,51.953354 
	C116.753433,51.675797 116.782539,50.778625 116.997971,50.169792 
	C119.135010,50.169792 121.272049,50.169792 123.968727,50.169792 
	C123.968727,53.535988 123.968727,56.809856 123.541275,60.547691 
	C115.240074,66.009750 107.299698,70.906952 99.518761,76.045570 
	C95.176613,78.913170 91.099464,82.182022 86.608902,85.098274 
	C83.543625,82.610527 80.772339,80.294556 78.052689,77.640121 
	C79.469612,76.167381 80.796806,74.983093 82.207611,73.908585 
	C85.836388,71.144821 89.502213,68.429703 93.153221,65.695137 
z"/>
<path fill="#1A90B9" opacity="1.000000" stroke="none" 
	d="
M3.143312,115.408203 
	C10.690008,110.277695 18.152740,105.492813 25.721487,100.881943 
	C28.196457,99.374199 30.947201,98.319122 33.916954,97.507256 
	C34.039867,103.968765 33.817665,109.980049 33.188824,115.994751 
	C30.730722,116.965477 28.586519,117.776443 26.644558,118.928360 
	C19.847889,122.959953 13.120990,127.109161 6.367587,131.213684 
	C5.278586,126.082962 4.189586,120.952248 3.143312,115.408203 
z"/>
<path fill="#159DB7" opacity="1.000000" stroke="none" 
	d="
M86.902901,85.270065 
	C91.099464,82.182022 95.176613,78.913170 99.518761,76.045570 
	C107.299698,70.906952 115.240074,66.009750 123.472389,61.004929 
	C123.876694,65.026093 123.922417,69.053978 123.560699,73.585724 
	C114.736839,79.617325 106.365021,85.215179 97.869370,90.618317 
	C95.992119,91.812210 93.676567,92.316933 91.354668,92.890137 
	C89.731972,90.184196 88.317436,87.727127 86.902901,85.270065 
z"/>
<path fill="#179BB8" opacity="1.000000" stroke="none" 
	d="
M6.446161,131.591003 
	C13.120990,127.109161 19.847889,122.959953 26.644558,118.928360 
	C28.586519,117.776443 30.730722,116.965477 33.309101,116.323730 
	C35.328648,120.731560 36.821278,124.813812 37.939461,128.947021 
	C29.366718,134.336411 21.168419,139.674881 12.970119,145.013351 
	C10.821659,140.665009 8.673197,136.316681 6.446161,131.591003 
z"/>
<path fill="#1E76BC" opacity="1.000000" stroke="none" 
	d="
M252.465179,180.899567 
	C252.318497,180.085953 252.422455,179.017044 252.985687,178.646805 
	C259.989349,174.043015 267.059723,169.540787 274.471558,165.006409 
	C274.118164,172.222244 279.657379,177.322876 288.427612,175.295288 
	C293.880066,174.034714 299.377258,172.967697 304.776245,171.830276 
	C304.776245,174.657959 304.776245,177.594193 304.776245,180.968918 
	C287.350677,180.968918 270.139954,180.968918 252.465179,180.899567 
z"/>
<path fill="#14A6B6" opacity="1.000000" stroke="none" 
	d="
M91.562836,93.139000 
	C93.676567,92.316933 95.992119,91.812210 97.869370,90.618317 
	C106.365021,85.215179 114.736839,79.617325 123.492035,74.044403 
	C123.876785,78.690872 123.922752,83.382523 123.537720,88.543137 
	C117.492653,92.404099 111.897942,95.828690 106.257896,99.176933 
	C102.336205,101.505081 98.352249,103.728340 94.295082,105.577560 
	C93.316986,101.150772 92.439911,97.144890 91.562836,93.139000 
z"/>
<path fill="#12AFB5" opacity="1.000000" stroke="none" 
	d="
M94.396103,105.998451 
	C98.352249,103.728340 102.336205,101.505081 106.257896,99.176933 
	C111.897942,95.828690 117.492653,92.404099 123.469421,89.004623 
	C123.878319,93.357834 123.924500,97.718513 123.902100,102.539459 
	C122.013268,103.700539 120.014145,104.121613 118.404076,105.151138 
	C111.828835,109.355553 105.408760,113.802299 98.844391,118.024300 
	C97.382248,118.964691 95.566544,119.355377 93.497726,119.583977 
	C93.519913,114.778687 93.958008,110.388565 94.396103,105.998451 
z"/>
<path fill="#13AEB5" opacity="1.000000" stroke="none" 
	d="
M58.003876,142.845779 
	C57.050270,144.063461 56.318436,145.598938 55.105667,146.445236 
	C49.011208,150.698181 42.752758,154.715714 36.643852,158.948639 
	C35.234264,159.925354 34.185661,161.423035 32.910385,163.061737 
	C29.036331,160.811218 25.222834,158.179947 21.552761,155.100708 
	C30.007408,148.993332 38.318630,143.333908 46.935699,137.796082 
	C50.828991,139.560379 54.416435,141.203079 58.003876,142.845779 
z"/>
<path fill="#15A5B7" opacity="1.000000" stroke="none" 
	d="
M46.629860,137.674500 
	C38.318630,143.333908 30.007408,148.993332 21.404202,154.804352 
	C18.444931,151.865585 15.777646,148.775223 13.040239,145.349091 
	C21.168419,139.674881 29.366718,134.336411 38.198566,129.139816 
	C41.431366,132.079285 44.030613,134.876892 46.629860,137.674500 
z"/>
<path fill="#1C8EBA" opacity="1.000000" stroke="none" 
	d="
M93.067596,65.378662 
	C89.502213,68.429703 85.836388,71.144821 82.207611,73.908585 
	C80.796806,74.983093 79.469612,76.167381 77.681946,77.599579 
	C73.171486,76.800529 69.083420,75.703552 64.995354,74.606583 
	C66.499046,72.980309 67.794403,71.071220 69.545723,69.781113 
	C74.669243,66.006851 79.974510,62.479301 85.603119,58.705429 
	C88.325775,60.724586 90.653870,62.893387 93.067596,65.378662 
z"/>
<path fill="#222222" opacity="1.000000" stroke="none" 
	d="
M562.207153,126.004173 
	C570.919983,126.004173 579.162537,126.004173 587.841187,126.004173 
	C585.157715,131.921783 580.876038,135.283112 574.881104,135.927170 
	C566.841980,136.790833 560.332642,133.987961 555.500854,126.004173 
	C557.984436,126.004173 559.860596,126.004173 562.207153,126.004173 
z"/>
<path fill="#1B82BA" opacity="1.000000" stroke="none" 
	d="
M280.468079,128.061249 
	C280.791046,127.123299 281.348450,125.843071 282.325256,125.193642 
	C289.542084,120.395531 296.842438,115.723122 304.540344,111.464104 
	C305.019653,115.945969 305.075104,119.974899 305.130585,124.003830 
	C302.135559,125.001038 299.205505,126.452614 296.130737,126.892471 
	C291.102295,127.611824 285.979614,127.672539 280.468079,128.061249 
z"/>
<path fill="#198DB9" opacity="1.000000" stroke="none" 
	d="
M116.533905,50.101074 
	C116.782539,50.778625 116.753433,51.675797 116.323929,51.953354 
	C109.058517,56.648449 101.743324,61.266521 94.061371,65.895538 
	C93.683586,60.785728 93.683586,55.682011 93.683586,50.032360 
	C101.586922,50.032360 108.828377,50.032360 116.533905,50.101074 
z"/>
<path fill="#222222" opacity="1.000000" stroke="none" 
	d="
M305.455109,123.876640 
	C305.075104,119.974899 305.019653,115.945969 304.899902,111.457176 
	C304.878143,107.964828 304.920685,104.932335 304.899414,101.449295 
	C304.877899,99.282051 304.920197,97.565353 304.898621,95.423447 
	C306.295410,92.768143 307.756042,90.538055 309.526459,88.164963 
	C309.889282,96.782082 310.318054,105.564522 309.799408,114.290657 
	C309.607941,117.511848 307.184875,120.600403 305.455109,123.876640 
z"/>
<path fill="#222222" opacity="1.000000" stroke="none" 
	d="
M616.059387,48.004181 
	C619.171631,48.004181 621.805298,48.004181 624.716064,48.004181 
	C624.716064,52.972980 624.716064,57.685257 624.716064,62.528969 
	C619.096008,57.726940 613.508911,52.953087 607.716980,48.004181 
	C610.195496,48.004181 612.888123,48.004181 616.059387,48.004181 
z"/>
<path fill="#222222" opacity="1.000000" stroke="none" 
	d="
M623.895386,154.668396 
	C624.557800,159.116150 624.936890,163.835510 625.335266,168.795471 
	C619.231995,168.795471 613.889099,168.795471 608.947205,168.795471 
	C613.746704,164.260880 618.679382,159.600449 623.895386,154.668396 
z"/>
<path fill="#222222" opacity="1.000000" stroke="none" 
	d="
M309.908234,72.518021 
	C308.506927,71.254272 307.178497,69.526253 305.662659,67.495522 
	C305.306213,63.099121 305.137115,59.005428 304.901367,54.453484 
	C304.898254,52.605453 304.961792,51.215679 305.083832,49.412323 
	C306.624390,48.998741 308.106384,48.998741 309.981079,48.998741 
	C309.981079,56.810917 309.981079,64.432335 309.908234,72.518021 
z"/>
<path fill="#222222" opacity="1.000000" stroke="none" 
	d="
M403.826599,50.674217 
	C400.559082,53.287594 397.546295,55.627113 394.275391,58.167084 
	C393.979523,54.441879 393.738434,51.406464 393.483398,48.195000 
	C397.925934,48.195000 402.657440,48.195000 408.319305,48.195000 
	C406.421783,49.182434 405.251556,49.791397 403.826599,50.674217 
z"/>
<path fill="#1E75BC" opacity="1.000000" stroke="none" 
	d="
M29.985966,48.008621 
	C30.101528,48.606163 29.993668,49.462921 29.530254,49.754398 
	C25.564060,52.249081 21.533459,54.641361 17.383617,57.147919 
	C17.383617,54.524441 17.383617,51.554661 17.383617,48.005775 
	C21.403460,48.005775 25.500586,48.005775 29.985966,48.008621 
z"/>
<path fill="#11B0B5" opacity="1.000000" stroke="none" 
	d="
M26.711847,166.302689 
	C27.851620,166.999847 28.688599,167.478516 30.575882,168.557846 
	C25.524370,168.557846 21.592676,168.557846 17.327919,168.557846 
	C17.327919,165.698105 17.327919,162.683701 17.327919,159.611618 
	C20.403250,161.803558 23.406151,163.943878 26.711847,166.302689 
z"/>
<path fill="#222222" opacity="1.000000" stroke="none" 
	d="
M398.802094,163.302414 
	C401.522675,165.209335 403.991089,166.849030 406.877777,168.766602 
	C402.104004,168.766602 397.777649,168.766602 393.791443,168.766602 
	C393.791443,165.670059 393.791443,162.628220 393.791443,158.562256 
	C395.824799,160.473587 397.187378,161.754379 398.802094,163.302414 
z"/>
<path fill="#222222" opacity="1.000000" stroke="none" 
	d="
M529.043152,53.987762 
	C529.009521,51.942902 529.009521,50.292831 529.009521,48.323730 
	C532.199768,48.323730 535.308472,48.323730 538.905579,48.323730 
	C535.365906,50.505703 532.221375,52.444126 529.043152,53.987762 
z"/>
<path fill="#222222" opacity="1.000000" stroke="none" 
	d="
M535.805786,167.308563 
	C536.521851,167.783524 536.971863,167.980942 538.296753,168.562195 
	C534.773254,168.562195 532.074524,168.562195 529.180420,168.562195 
	C529.180420,167.031204 529.180420,165.415970 529.180420,163.081604 
	C531.443420,164.487045 533.491577,165.759033 535.805786,167.308563 
z"/>
<path fill="#1B84BA" opacity="1.000000" stroke="none" 
	d="
M87.673950,48.057053 
	C88.468063,49.570335 88.836266,51.045750 89.444183,53.481667 
	C85.918770,51.557404 83.309784,50.133350 79.436455,48.019184 
	C82.889915,48.019184 85.068985,48.019184 87.673950,48.057053 
z"/>
<path fill="#F9F9F9" opacity="1.000000" stroke="none" 
	d="
M545.655884,97.668556 
	C545.810242,80.051430 564.069031,68.649696 581.927368,74.615013 
	C592.852478,78.264381 598.965210,86.258255 599.379028,97.811478 
	C581.603333,97.811478 563.838501,97.811478 545.655884,97.668556 
M583.458862,84.935852 
	C575.961548,79.201996 563.306030,81.020950 557.514832,88.744919 
	C567.546753,88.744919 577.509644,88.744919 588.223633,88.744919 
	C586.543579,87.189545 585.383667,86.115654 583.458862,84.935852 
z"/>
<path fill="#F9FCFD" opacity="1.000000" stroke="none" 
	d="
M64.556519,74.693985 
	C69.083420,75.703552 73.171486,76.800529 77.630302,77.938049 
	C80.772339,80.294556 83.543625,82.610527 86.608902,85.098282 
	C88.317436,87.727127 89.731972,90.184196 91.354668,92.890137 
	C92.439911,97.144890 93.316986,101.150772 94.295082,105.577560 
	C93.958008,110.388565 93.519913,114.778687 93.120949,119.584839 
	C86.018623,137.388489 76.084778,143.979614 58.459232,142.784302 
	C54.416435,141.203079 50.828991,139.560379 46.935703,137.796082 
	C44.030613,134.876892 41.431366,132.079285 38.573013,129.088867 
	C36.821278,124.813812 35.328648,120.731560 33.715736,116.320320 
	C33.817665,109.980049 34.039867,103.968765 34.312134,97.533813 
	C39.364174,83.115433 48.771324,74.991089 64.556519,74.693985 
M88.959419,111.103813 
	C88.113197,106.198868 87.266975,101.293915 86.160561,95.728165 
	C83.453697,92.118530 80.746841,88.508896 77.690910,84.276398 
	C76.809547,83.856880 75.921982,83.449883 75.047752,83.015984 
	C61.441158,76.262627 46.878212,81.182198 41.166832,95.285591 
	C39.251286,100.015732 39.769691,105.731537 39.039062,111.848488 
	C39.010269,117.172974 39.931252,122.169716 44.018787,126.789200 
	C47.334877,129.562302 50.650967,132.335403 54.373169,135.759567 
	C75.585190,142.555359 87.601959,127.531036 88.959419,111.103813 
z"/>
<path fill="#222222" opacity="1.000000" stroke="none" 
	d="
M583.841309,84.988808 
	C585.383667,86.115654 586.543579,87.189545 588.223633,88.744919 
	C577.509644,88.744919 567.546753,88.744919 557.514832,88.744919 
	C563.306030,81.020950 575.961548,79.201996 583.841309,84.988808 
z"/>
<path fill="#159BB7" opacity="1.000000" stroke="none" 
	d="
M78.039978,84.899261 
	C80.746841,88.508896 83.453697,92.118530 86.069199,96.384659 
	C84.506279,98.105812 83.055435,99.200562 81.559914,100.230415 
	C69.029747,108.858864 56.491390,117.475418 43.955505,126.095558 
	C39.931252,122.169716 39.010269,117.172974 39.450317,111.379593 
	C52.221863,102.783859 64.587105,94.664505 76.924721,86.503387 
	C77.429359,86.169571 77.674133,85.442902 78.039978,84.899261 
z"/>
<path fill="#13A6B6" opacity="1.000000" stroke="none" 
	d="
M43.987144,126.442383 
	C56.491390,117.475418 69.029747,108.858864 81.559914,100.230415 
	C83.055435,99.200562 84.506279,98.105812 86.199295,96.715057 
	C87.266975,101.293915 88.113197,106.198868 88.529709,111.558182 
	C87.009003,112.373146 85.773750,112.515816 84.849243,113.127884 
	C75.179321,119.529861 65.543442,125.983887 55.952354,132.503265 
	C55.095974,133.085373 54.619804,134.226822 53.967056,135.108505 
	C50.650967,132.335403 47.334877,129.562302 43.987144,126.442383 
z"/>
<path fill="#1890B9" opacity="1.000000" stroke="none" 
	d="
M77.865448,84.587830 
	C77.674133,85.442902 77.429359,86.169571 76.924721,86.503387 
	C64.587105,94.664505 52.221863,102.783859 39.518578,110.953751 
	C39.769691,105.731537 39.251286,100.015732 41.166832,95.285591 
	C46.878212,81.182198 61.441158,76.262627 75.047752,83.015984 
	C75.921982,83.449883 76.809547,83.856880 77.865448,84.587830 
z"/>
<path fill="#11AEB5" opacity="1.000000" stroke="none" 
	d="
M54.170113,135.434036 
	C54.619804,134.226822 55.095974,133.085373 55.952354,132.503265 
	C65.543442,125.983887 75.179321,119.529861 84.849243,113.127884 
	C85.773750,112.515816 87.009003,112.373146 88.462196,112.005371 
	C87.601959,127.531036 75.585190,142.555359 54.170113,135.434036 
z"/>
</svg>